<svg width="164" height="32" viewBox="0 0 164 32" fill="none" xmlns="http://www.w3.org/2000/svg">
    <g style="mix-blend-mode:difference">
        <g id="logo-admin__dot">
            <path
                d="M162.299 30.0584C161.383 30.7805 160.217 31.1415 158.8 31.1415C157.384 31.1415 156.217 30.7805 155.301 30.0584C154.385 29.3086 153.926 28.2255 153.926 26.8092C153.926 25.3928 154.385 24.3236 155.301 23.6016C156.217 22.8517 157.384 22.4768 158.8 22.4768C160.217 22.4768 161.383 22.8517 162.299 23.6016C163.216 24.3236 163.674 25.3928 163.674 26.8092C163.674 28.2255 163.216 29.3086 162.299 30.0584Z"
                fill="#D3D8E1" data-svg-origin="153.92599487304688 22.4768009185791"
                transform="matrix(1,0,0,1,-124.3425,0)"
                style="translate: none; rotate: none; scale: none; transform-origin: 0px 0px; pointer-events: auto;">
            </path>
        </g>
        <g id="logo-admin__M">
            <path
                d="M150.83 25.7262C150.969 26.4204 151.288 27.1564 151.788 27.934C152.288 28.6838 152.538 29.267 152.538 29.6836V29.8502C152.538 30.4334 152.191 30.725 151.497 30.725H141.874C141.18 30.725 140.832 30.4334 140.832 29.8502V29.6836C140.832 29.3503 141.11 28.7949 141.666 28.0173C142.221 27.2397 142.443 26.476 142.332 25.7262L140.124 12.9373L134.292 29.392C134.014 30.2529 133.473 30.6834 132.668 30.6834C131.779 30.6834 131.154 30.2668 130.793 29.4337L123.795 12.1042L121.878 25.7262C121.767 26.476 121.989 27.2397 122.545 28.0173C123.1 28.7949 123.378 29.3503 123.378 29.6836V29.8502C123.378 30.4334 123.031 30.725 122.337 30.725H116.796C116.102 30.725 115.755 30.4334 115.755 29.8502V29.6836C115.755 29.267 116.005 28.6838 116.504 27.934C117.032 27.1842 117.352 26.4482 117.463 25.7262L120.42 6.1472C120.531 5.39737 120.268 4.63365 119.629 3.85604C119.018 3.07844 118.712 2.52301 118.712 2.18975V2.02312C118.712 1.43992 119.059 1.14832 119.754 1.14832H126.002C127.224 1.14832 128.016 1.68986 128.377 2.77295L133.876 18.8527L139.041 2.85627C139.43 1.71763 140.208 1.14832 141.374 1.14832H147.789C148.483 1.14832 148.831 1.43992 148.831 2.02312V2.18975C148.831 2.52301 148.511 3.07844 147.872 3.85604C147.234 4.63365 146.984 5.39737 147.123 6.1472L150.83 25.7262Z"
                fill="#D3D8E1" data-svg-origin="115.75499725341797 1.148319959640503"
                transform="matrix(1,0,0,1,0,32.53435)"
                style="translate: none; rotate: none; scale: none; transform-origin: 0px 0px; pointer-events: none; opacity: 0;">
            </path>
        </g>
        <g id="logo-admin__O">
            <path
                d="M100.001 31.1416C96.0574 31.1416 92.6137 29.753 89.6699 26.9758C86.7539 24.1987 85.2959 20.5884 85.2959 16.1449C85.2959 11.5348 86.6428 7.81344 89.3367 4.98074C92.0305 2.14804 95.5853 0.731689 100.001 0.731689C104 0.731689 107.458 2.17581 110.374 5.06405C113.317 7.9523 114.789 11.6459 114.789 16.1449C114.789 20.6439 113.373 24.2681 110.54 27.0175C107.708 29.7669 104.194 31.1416 100.001 31.1416ZM102.5 27.6423C104.805 27.6423 105.958 26.0871 105.958 22.9767C105.958 20.8661 105.514 18.3528 104.625 15.4367C103.736 12.493 102.57 9.89631 101.126 7.64681C99.6816 5.36954 98.2791 4.23091 96.9183 4.23091C94.6688 4.23091 93.5441 5.82777 93.5441 9.02151C93.5441 11.4654 93.9745 14.1454 94.8354 17.0614C95.7241 19.9774 96.8766 22.4768 98.293 24.5597C99.7371 26.6148 101.14 27.6423 102.5 27.6423Z"
                fill="#D3D8E1" data-svg-origin="85.2958984375 0.7316889762878418" transform="matrix(1,0,0,1,0,33.4509)"
                style="translate: none; rotate: none; scale: none; transform-origin: 0px 0px; pointer-events: none; opacity: 0;">
            </path>
        </g>
        <g id="logo-admin_O">
            <path
                d="M68.5947 31.1416C64.6511 31.1416 61.2075 29.753 58.2637 26.9758C55.3477 24.1987 53.8896 20.5884 53.8896 16.1449C53.8896 11.5348 55.2366 7.81344 57.9304 4.98074C60.6243 2.14804 64.179 0.731689 68.5947 0.731689C72.5938 0.731689 76.0514 2.17581 78.9674 5.06405C81.9112 7.9523 83.3831 11.6459 83.3831 16.1449C83.3831 20.6439 81.9667 24.2681 79.134 27.0175C76.3013 29.7669 72.7882 31.1416 68.5947 31.1416ZM71.0941 27.6423C73.3992 27.6423 74.5517 26.0871 74.5517 22.9767C74.5517 20.8661 74.1074 18.3528 73.2187 15.4367C72.33 12.493 71.1636 9.89631 69.7194 7.64681C68.2753 5.36954 66.8729 4.23091 65.512 4.23091C63.2626 4.23091 62.1378 5.82777 62.1378 9.02151C62.1378 11.4654 62.5683 14.1454 63.4292 17.0614C64.3179 19.9774 65.4704 22.4768 66.8867 24.5597C68.3309 26.6148 69.7333 27.6423 71.0941 27.6423Z"
                fill="#D3D8E1" data-svg-origin="53.88959884643555 0.7316889762878418"
                transform="matrix(1,0,0,1,0,33.4509)"
                style="translate: none; rotate: none; scale: none; transform-origin: 0px 0px; pointer-events: none; opacity: 0;">
            </path>
        </g>
        <g id="logo-admin__L">
            <path
                d="M30.3727 30.725C29.6784 30.725 29.3313 30.4334 29.3313 29.8502V29.6836C29.3313 29.3226 29.609 28.7671 30.1644 28.0173C30.7476 27.2397 31.0393 26.476 31.0393 25.7262V6.1472C31.0393 5.39737 30.7476 4.64753 30.1644 3.8977C29.609 3.1201 29.3313 2.55078 29.3313 2.18975V2.02312C29.3313 1.43992 29.6784 1.14832 30.3727 1.14832H40.5788C41.2731 1.14832 41.6202 1.43992 41.6202 2.02312V2.18975C41.6202 2.55078 41.3008 3.1201 40.6621 3.8977C40.0234 4.64753 39.704 5.39737 39.704 6.1472V24.4764C39.704 25.3096 39.8845 26.0178 40.2455 26.601C40.6066 27.1842 41.162 27.4758 41.9118 27.4758H44.9112C45.7721 27.4758 46.5497 27.1564 47.244 26.5176C47.9383 25.8511 48.4659 25.1291 48.8269 24.3515C49.2157 23.5739 49.6462 22.8657 50.1183 22.2269C50.5904 21.5604 51.0626 21.2272 51.5347 21.2272H52.1595C52.5206 21.2272 52.7844 21.3382 52.951 21.5604C53.1177 21.7548 53.1732 22.0187 53.1177 22.3519L51.9929 29.267C51.9096 29.7947 51.743 30.1696 51.493 30.3918C51.2708 30.614 50.9237 30.725 50.4516 30.725H30.3727Z"
                fill="#D3D8E1" data-svg-origin="29.331300735473633 1.148319959640503"
                transform="matrix(1,0,0,1,0,32.53435)"
                style="translate: none; rotate: none; scale: none; transform-origin: 0px 0px; pointer-events: none; opacity: 0;">
            </path>
        </g>
        <g id="logo-admin__B">
            <path
                d="M19.7797 14.8119C22.1125 15.173 23.9593 16.0339 25.3201 17.3947C26.6809 18.7277 27.3613 20.3801 27.3613 22.3519C27.3613 24.9347 26.1671 26.9759 23.7788 28.4755C21.4182 29.9752 17.7107 30.725 12.6563 30.725H1.36712C0.672828 30.725 0.325684 30.4334 0.325684 29.8502V29.6836C0.325684 29.3226 0.603399 28.7671 1.15883 28.0173C1.74203 27.2397 2.03364 26.476 2.03364 25.7262V6.1472C2.03364 5.39737 1.74203 4.64753 1.15883 3.8977C0.603399 3.1201 0.325684 2.55078 0.325684 2.18975V2.02312C0.325684 1.43992 0.672828 1.14832 1.36712 1.14832H13.4894C17.1553 1.14832 19.8908 1.85649 21.6959 3.27284C23.5011 4.66142 24.4036 6.46657 24.4036 8.6883C24.4036 10.2157 23.9871 11.521 23.1539 12.6041C22.3208 13.6872 21.196 14.4231 19.7797 14.8119ZM10.4901 6.7304V11.1877C10.4901 11.9098 10.7123 12.4791 11.1566 12.8957C11.6009 13.3123 12.198 13.5206 12.9479 13.5206H14.3642C15.1974 13.5206 15.8639 13.2012 16.3638 12.5624C16.8914 11.8959 17.1553 11.0072 17.1553 9.89636C17.1553 8.17452 16.7942 6.8276 16.0722 5.8556C15.3501 4.88359 14.392 4.39759 13.1978 4.39759H12.6563C11.2121 4.39759 10.4901 5.17519 10.4901 6.7304ZM15.4057 27.4758C16.2666 27.4758 16.9747 27.1147 17.5302 26.3927C18.0856 25.6428 18.3633 24.7125 18.3633 23.6016C18.3633 21.9631 17.7246 20.4079 16.4471 18.936C15.1974 17.4641 13.5033 16.7282 11.3649 16.7282H10.4901V23.5183C10.4901 24.657 10.8095 25.6012 11.4482 26.351C12.0869 27.1009 12.934 27.4758 13.9893 27.4758H15.4057Z"
                fill="#D3D8E1" style="pointer-events: auto;"></path>
        </g>
    </g>
</svg>